<svg width="120" height="120" viewBox="0 0 120 120" fill="none" xmlns="http://www.w3.org/2000/svg">
<rect x="39.6923" width="41.5385" height="120" rx="20.7692" fill="#156B77"/>
<rect x="120" y="39.6924" width="40.6154" height="120" rx="20.3077" transform="rotate(90 120 39.6924)" fill="#156B77"/>
<path d="M37.3201 38.7019C48.0084 40.2252 54.9413 48.0197 59.8212 56.4023C62.522 61.121 64.7995 66.1482 68.3385 70.1714C70.965 73.1739 74.0417 75.6944 77.4199 77.9283C79.6749 79.4067 82.0632 80.7209 85.0563 81.1463C83.4203 81.3844 81.8265 81.3024 80.3377 81.0249C75.9059 80.1116 72.1097 78.1237 68.6446 75.7257C65.1971 73.3164 62.384 70.0578 60.1991 66.4227C58.0634 62.8961 56.2652 59.0664 54.1711 55.5745C49.986 48.5717 44.9066 42.3754 37.3201 38.7019Z" fill="white"/>
<path d="M62.6963 55.9077C62.6963 55.9077 50.0181 44.751 55.921 29.7776C60.7868 17.435 67.7181 15.0634 67.371 5.25195C72.3927 9.68771 81.5085 21.2291 77.2971 34.8903C73.1772 48.2558 62.6963 55.9077 62.6963 55.9077Z" fill="white"/>
<path d="M67.371 5.25195C73.4563 12.6762 73.5458 21.7331 70.5502 30.7322C67.8837 39.1893 63.1655 46.6176 62.071 55.461C61.9403 54.694 61.6841 53.6846 61.6666 52.8938C61.6033 51.5196 61.7088 50.0966 61.9036 48.7281C62.8581 42.2174 65.7469 35.9921 67.7132 29.8641C70.6812 21.0104 71.0102 13.751 67.371 5.25195Z" fill="#156B77"/>
<path d="M58.7762 65.9389C58.7762 65.9389 45.9359 45.9015 31.3737 52.285C19.3702 57.5469 17.4399 62.0002 4.8341 58.908C9.39855 63.6826 19.6003 74.3693 35.0489 72.7493C48.8093 71.3058 58.7762 65.9389 58.7762 65.9389Z" fill="white"/>
<path d="M4.63754 59.0921C11.1595 62.7332 18.8682 63.4438 25.9849 61.7371C27.2351 61.5006 28.762 60.9714 29.9853 60.6206C39.4718 57.2776 51.4854 58.5688 58.7666 65.9515C50.5243 62.0166 40.7288 61.485 32.1204 64.2518C31.7046 64.3822 30.8532 64.6316 30.4317 64.7492C30.1014 64.842 28.4903 65.2995 28.1937 65.3739C27.1445 65.5607 26.0263 65.7944 24.9718 65.9319C24.3342 65.9641 22.7901 66.1319 22.1665 66.1334C21.7016 66.1229 20.7529 66.105 20.2869 66.0933C14.5181 65.8139 8.43126 63.5693 4.63754 59.0921Z" fill="#156B77"/>
</svg>
